<svg xmlns="http://www.w3.org/2000/svg" viewBox="0 0 512 512" fill="#7011f5" xmlns:v="https://vecta.io/nano"><path d="M459.36 100.64l-96-96A16 16 0 0 0 352 0H96C69.5 0 48 21.5 48 48v416c0 26.5 21.5 48 48 48h320c26.5 0 48-21.5 48-48V112a16 16 0 0 0-4.64-11.36zM96 480c-8.837 0-16-7.163-16-16v-73.44l96-96L361.44 480H96zm336-16c0 8.837-7.163 16-16 16h-9.44l-112-112L336 326.56l96 96V464zm0-86.56l-84.64-84.64c-6.24-6.204-16.32-6.204-22.56 0L272 345.44l-84.64-84.64c-6.24-6.204-16.32-6.204-22.56 0L80 345.44V48c0-8.837 7.163-16 16-16h240v64c0 17.673 14.327 32 32 32h64v249.44zM208 80c-35.346 0-64 28.654-64 64s28.654 64 64 64 64-28.654 64-64-28.654-64-64-64zm0 96c-17.673 0-32-14.327-32-32s14.327-32 32-32 32 14.327 32 32-14.327 32-32 32z"/></svg>