<svg xmlns="http://www.w3.org/2000/svg" xmlns:xlink="http://www.w3.org/1999/xlink" viewBox="0 0 512 512" fill="#db4437" xmlns:v="https://vecta.io/nano"><path d="M32 464V48c0-8.837 7.163-16 16-16h240v64c0 17.673 14.327 32 32 32h64v48h32v-64c.025-4.253-1.645-8.34-4.64-11.36l-96-96A16 16 0 0 0 304 0H48C21.5 0 0 21.49 0 48v416c0 26.5 21.5 48 48 48h112v-32H48c-8.836 0-16-7.163-16-16z"/><use xlink:href="#B"/><use xlink:href="#B" x="128"/><path d="M384 256v32h48v128h32V288h48v-32z"/><defs ><path id="B" d="M208 256h-64c-8.837 0-16 7.163-16 16v144h32v-48h48c17.673 0 32-14.327 32-32v-48c0-17.673-14.327-32-32-32zm0 80h-48v-48h48v48z"/></defs></svg>