<svg xmlns="http://www.w3.org/2000/svg" viewBox="0 0 512 512" fill="#4285f4" xmlns:v="https://vecta.io/nano"><path d="M32 464V48c0-8.837 7.163-16 16-16h240v64c0 17.673 14.327 32 32 32h64v48h32v-64a16 16 0 0 0-4.64-11.36l-96-96A16 16 0 0 0 304 0H48C21.5 0 0 21.5 0 48v416c0 26.5 21.5 48 48 48h112v-32H48c-8.836 0-16-7.163-16-16zm160-208h-64c-8.837 0-16 7.163-16 16v128c0 8.837 7.163 16 16 16h64c17.673 0 32-14.327 32-32v-96c0-17.673-14.327-32-32-32zm0 128h-48v-96h48v96zm112-128c-35.346 0-64 28.654-64 64v32c0 35.346 28.654 64 64 64s64-28.654 64-64v-32c0-35.346-28.654-64-64-64zm32 96c0 17.673-14.327 32-32 32s-32-14.327-32-32v-32c0-17.673 14.327-32 32-32s32 14.327 32 32v32zm112 32c-17.673 0-32-14.327-32-32v-32c0-17.673 14.327-32 32-32s32 14.327 32 32h32c0-35.346-28.654-64-64-64s-64 28.654-64 64v32c0 35.346 28.654 64 64 64s64-28.654 64-64h-32c0 17.673-14.327 32-32 32z"/></svg>