<svg xmlns="http://www.w3.org/2000/svg" viewBox="0 0 512 512" xmlns:v="https://vecta.io/nano"><style>svg {fill: #333333}</style><path d="M496 0H16A16.01 16.01 0 0 0 0 16v160a16.01 16.01 0 0 0 16 16h32v48a15.98 15.98 0 0 0 9.072 14.416C59.28 255.472 61.648 256 64 256c3.568 0 7.104-1.2 10-3.504L149.616 192H496a16.01 16.01 0 0 0 16-16V16a16.01 16.01 0 0 0-16-16zm-16 160H144c-3.632 0-7.152 1.232-10 3.504l-54 43.2V176a16.01 16.01 0 0 0-16-16H32V32h448v128zm16 160h-42.384L378 259.504c-4.816-3.856-11.408-4.576-16.928-1.936A16.02 16.02 0 0 0 352 272v48H16a16.01 16.01 0 0 0-16 16v160a16.01 16.01 0 0 0 16 16h480a16.01 16.01 0 0 0 16-16V336a16.01 16.01 0 0 0-16-16zm-16 160H32V352h336a16.01 16.01 0 0 0 16-16v-30.704l54 43.2c2.848 2.272 6.368 3.504 10 3.504h32v128zM240 80h32v32h-32zm80 0h32v32h-32zm-160 0h32v32h-32zm80 320h32v32h-32zm80 0h32v32h-32zm-160 0h32v32h-32z"/></svg>