<svg xmlns="http://www.w3.org/2000/svg" viewBox="0 0 60 60" xmlns:v="https://vecta.io/nano"><style>svg {fill: #333333}</style><path d="M59 4h-3V2a.94.94 0 0 0-1-1H5a.94.94 0 0 0-1 1v2H1a.94.94 0 0 0-1 1v37a.94.94 0 0 0 1 1h43v-2H2V6h2v32a.94.94 0 0 0 1 1h39v-2H31V3h1.9v25.9c0 1.4.6 2.1 1 2.5.8.7 1.8.6 2.1.6h9.5c.8 0 1 .3 1.1.4.4.4.4 1.2.4 1.5V49c0 .4 0 .7-.2.8-.3.2-.7.2-.8.2H35v2h11.1c.4 0 1.3-.1 1.9-.7.4-.4.9-1.1.9-2.3V34.1c.1-.4.2-1.9-.8-3-.5-.5-1.2-1.1-2.6-1.1h-9.7s-.4 0-.6-.2c-.3-.2-.3-.6-.3-.9V3H54v34h-2v2h3a.94.94 0 0 0 1-1V6h2v35h-6v2h7a.94.94 0 0 0 1-1V5a.94.94 0 0 0-1-1zM6 37V3h23v34H6zm24.8 8H15.3c-1.8 0-3.3 1.6-3.3 3.5v6.9c0 2 1.5 3.6 3.3 3.6h15.4c1.6 0 3-1.4 3.3-3.1.1-.1.1-.3.1-.5v-6.9c0-1.9-1.5-3.5-3.3-3.5zm1.3 10c-.1.1-.1.2-.1.4 0 .7-.6 1.6-1.3 1.6H15.3c-.7 0-1.3-.7-1.3-1.6v-6.9c0-.8.6-1.5 1.3-1.5h15.5c.6 0 1.3.8 1.3 1.5V55zM27 50h3v2h-3zM52 6a.94.94 0 0 0-1-1H38v2h12v10H38v2h13a.94.94 0 0 0 1-1V6zM38 21h13v2H38zm0 4h13v2H38zM9 21h11v2H9zm0 4h16v2H9zm0 4h16v2H9zM25 5H10a.94.94 0 0 0-1 1v11a.94.94 0 0 0 1 1h15a.94.94 0 0 0 1-1V6a.94.94 0 0 0-1-1zm-1 11H11V7h13v9z"/></svg>