<svg xmlns="http://www.w3.org/2000/svg" xmlns:xlink="http://www.w3.org/1999/xlink" viewBox="0 0 60 60" xmlns:v="https://vecta.io/nano"><style>svg {fill: #333333}</style><path d="M54.5 46h0V1a.94.94 0 0 0-1-1h-47a.94.94 0 0 0-1 1v58a.94.94 0 0 0 1 1h34c.3 0 .5-.1.7-.3l13-13c.1-.1.1-.2.2-.3v-.1c.1-.1.1-.2.1-.3zM7.5 2h45v43h-12a.94.94 0 0 0-1 1v12h-32V2zm34 54.6V47h9.6l-9.6 9.6z"/><use xlink:href="#B"/><path d="M25.5 7h10v2h-10zm0 5h22v2h-22z"/><use xlink:href="#B" y="13"/><path d="M25.5 20h10v2h-10zm0 5h22v2h-22z"/><use xlink:href="#B" y="26"/><path d="M25.5 33h10v2h-10zm0 5h22v2h-22zm-13 8h11v2h-11zm0 5h20v2h-20z"/><defs ><path id="B" d="M15.5 14c.3 0 .5-.1.7-.3l6-6-1.4-1.4-5.3 5.3-2.3-2.3-1.4 1.4 3 3c.2.2.4.3.7.3z"/></defs></svg>