<svg xmlns="http://www.w3.org/2000/svg" viewBox="0 0 512 512" xmlns:v="https://vecta.io/nano"><style>svg {fill: #333333}</style><path d="M458.667 32H53.333C23.893 32.035.035 55.893 0 85.333v341.333c.035 29.44 23.893 53.3 53.333 53.334h224v-21.333h-224c-17.673 0-32-14.327-32-32V85.333c0-17.673 14.327-32 32-32h405.333c17.673 0 32 14.327 32 32v149.333H512V85.333c-.035-29.44-23.893-53.298-53.333-53.333z"/><path d="M10.667 96h458.667v21.333H10.667zm42.666-32h96v21.333h-96zm117.334 0H192v21.333h-21.333zm42.666 0h21.333v21.333h-21.333zM256 64h21.333v21.333H256zm42.667 0H320v21.333h-21.333zm74.666 138.667c-76.583 0-138.667 62.083-138.667 138.667S296.75 480 373.333 480c76.547-.088 138.58-62.12 138.667-138.667 0-76.583-62.083-138.666-138.667-138.666zm0 256c-64.8 0-117.333-52.532-117.333-117.334S308.532 224 373.333 224c64.77.076 117.257 52.564 117.333 117.333.001 64.802-52.53 117.334-117.333 117.334zm0-224c-58.9 0-106.667 47.756-106.667 106.667H288c0-47.13 38.205-85.334 85.333-85.334s85.333 38.205 85.333 85.333-38.205 85.333-85.333 85.333V448C432.244 448 480 400.244 480 341.333s-47.756-106.666-106.667-106.666zm10.667 96v-53.333h-21.333v64a10.67 10.67 0 0 0 10.667 10.667h64v-21.333H384zm-330.667-192a10.67 10.67 0 0 0-10.667 10.667v277.333H64V160h405.333v-21.333h-416zm181.334 42.666h-160v21.333H224V224H74.667v21.333h160a10.67 10.67 0 0 0 10.667-10.667V192a10.67 10.67 0 0 0-10.667-10.667zm-64 85.334h-96V288H160v21.333H74.667v21.333h96a10.67 10.67 0 0 0 10.667-10.667v-42.667a10.67 10.67 0 0 0-10.667-10.665zm-32 85.333h-64v21.333H128v21.333H74.667V416h64a10.67 10.67 0 0 0 10.667-10.667v-42.667A10.67 10.67 0 0 0 138.667 352zM192 266.667h21.333v64H192zM160 352h21.333v64H160zm106.667-170.667H288v21.333h-21.333z"/></svg>